/* XPM */
static char * File_Open_Directory_xpm[] = {
"32 32 511 2",
"  	c None",
". 	c #281480",
"+ 	c #231269",
"@ 	c #101010",
"# 	c #0D0D0D",
"$ 	c #0F0F0F",
"% 	c #584CB2",
"& 	c #7067C8",
"* 	c #7771DC",
"= 	c #454089",
"- 	c #3B2C7A",
"; 	c #8292A6",
"> 	c #7C9DC4",
", 	c #737E8C",
"' 	c #131313",
") 	c #28167D",
"! 	c #443796",
"~ 	c #584FB0",
"{ 	c #665FC4",
"] 	c #736DDD",
"^ 	c #7B75E0",
"/ 	c #8A85E3",
"( 	c #6D66DB",
"_ 	c #24215E",
": 	c #3C2D7C",
"< 	c #769BC5",
"[ 	c #F5FAFC",
"} 	c #ACC2DD",
"| 	c #7E9FC6",
"1 	c #677B93",
"2 	c #131314",
"3 	c #39278D",
"4 	c #6860CB",
"5 	c #5C57AE",
"6 	c #3F397E",
"7 	c #383582",
"8 	c #47419E",
"9 	c #5953C0",
"0 	c #6B64DB",
"a 	c #7A74DE",
"b 	c #726DC7",
"c 	c #625BC4",
"d 	c #221F5B",
"e 	c #433A89",
"f 	c #C6DEED",
"g 	c #E6F2F8",
"h 	c #F6FBFD",
"i 	c #FCFDFE",
"j 	c #668DBD",
"k 	c #424447",
"l 	c #0A0A0A",
"m 	c #392787",
"n 	c #625BD0",
"o 	c #403B91",
"p 	c #1D1A4D",
"q 	c #36317F",
"r 	c #3F3A95",
"s 	c #373187",
"t 	c #302977",
"u 	c #33277D",
"v 	c #27167D",
"w 	c #6E67D1",
"x 	c #221E5A",
"y 	c #494A93",
"z 	c #87AFD1",
"A 	c #D1E7F2",
"B 	c #E4F1F8",
"C 	c #8FADCF",
"D 	c #717882",
"E 	c #0C0C0C",
"F 	c #382688",
"G 	c #645ED5",
"H 	c #37337F",
"I 	c #1E1659",
"J 	c #211666",
"K 	c #261369",
"L 	c #5E2736",
"M 	c #8C440F",
"N 	c #954709",
"O 	c #642D38",
"P 	c #6E67D0",
"Q 	c #464B94",
"R 	c #547EAC",
"S 	c #537EAD",
"T 	c #7097C1",
"U 	c #698CB3",
"V 	c #0E0E0E",
"W 	c #6760D9",
"X 	c #23204D",
"Y 	c #934708",
"Z 	c #D07C28",
"` 	c #E48F32",
" .	c #F09A38",
"..	c #AE6E53",
"+.	c #6E68D0",
"@.	c #595FA1",
"#.	c #98CBE3",
"$.	c #77A6CC",
"%.	c #4E7CAE",
"&.	c #666C74",
"*.	c #15100D",
"=.	c #9A4D0C",
"-.	c #FFA740",
";.	c #B17055",
">.	c #535DA0",
",.	c #89C4DF",
"'.	c #9ACDE4",
").	c #5C8AB6",
"!.	c #3A3633",
"~.	c #794613",
"{.	c #C87724",
"].	c #96490A",
"^.	c #924508",
"/.	c #934609",
"(.	c #934608",
"_.	c #543063",
":.	c #71393D",
"<.	c #B26218",
"[.	c #4B589D",
"}.	c #76BBDA",
"|.	c #87C3DE",
"1.	c #507DA9",
"2.	c #241E18",
"3.	c #D58B35",
"4.	c #9D4F0D",
"5.	c #BB691C",
"6.	c #F9A23D",
"7.	c #7B5270",
"8.	c #24214D",
"9.	c #AC6C56",
"0.	c #FAA23C",
"a.	c #B06E4B",
"b.	c #7865AD",
"c.	c #412B46",
"d.	c #5B4863",
"e.	c #5A6972",
"f.	c #5698C2",
"g.	c #4673A0",
"h.	c #18140E",
"i.	c #E7973A",
"j.	c #95470A",
"k.	c #984C0B",
"l.	c #9E500B",
"m.	c #D88730",
"n.	c #EB9A3E",
"o.	c #E2953E",
"p.	c #B27851",
"q.	c #B57F5E",
"r.	c #B17A43",
"s.	c #C88B4E",
"t.	c #D49652",
"u.	c #D69A58",
"v.	c #D9A062",
"w.	c #DAA468",
"x.	c #DEAA6E",
"y.	c #DDAD7A",
"z.	c #DEB288",
"A.	c #DFB385",
"B.	c #E6BC8D",
"C.	c #B5742B",
"D.	c #315C8C",
"E.	c #456180",
"F.	c #1A150F",
"G.	c #E19338",
"H.	c #994C0B",
"I.	c #B88356",
"J.	c #FFE7CA",
"K.	c #FEDFBB",
"L.	c #FDDEBB",
"M.	c #FCDAB3",
"N.	c #FBD6AB",
"O.	c #FBD3A5",
"P.	c #FCD2A1",
"Q.	c #FDCF9A",
"R.	c #FFCF97",
"S.	c #FFCD94",
"T.	c #FFCA8C",
"U.	c #FFC888",
"V.	c #FFC683",
"W.	c #FFC37D",
"X.	c #FFC179",
"Y.	c #E6AF70",
"Z.	c #C99B66",
"`.	c #C09562",
" +	c #D0A97D",
".+	c #BD8747",
"++	c #62A8C8",
"@+	c #316494",
"#+	c #1F1A13",
"$+	c #D08834",
"%+	c #974B0B",
"&+	c #B78154",
"*+	c #FFD099",
"=+	c #FFB865",
"-+	c #C39661",
";+	c #968D83",
">+	c #B7B2AD",
",+	c #CDCBCA",
"'+	c #D1D1D1",
")+	c #C3C0BE",
"!+	c #9C9792",
"~+	c #6D7D82",
"{+	c #376891",
"]+	c #241E17",
"^+	c #BC7B2F",
"/+	c #954809",
"(+	c #B07645",
"_+	c #FFB661",
":+	c #FAB360",
"<+	c #98836C",
"[+	c #C9C7C4",
"}+	c #D4D3D3",
"|+	c #8F8E8C",
"1+	c #8A8F93",
"2+	c #8C9195",
"3+	c #878A8F",
"4+	c #9F9E9B",
"5+	c #D9D9D9",
"6+	c #83888C",
"7+	c #373430",
"8+	c #AF732C",
"9+	c #AB6D39",
"0+	c #FFCE96",
"a+	c #FFB45C",
"b+	c #99856B",
"c+	c #DBDAD9",
"d+	c #979593",
"e+	c #9EA7B2",
"f+	c #B9BBBE",
"g+	c #C9BDAF",
"h+	c #CFBCA5",
"i+	c #D0C0AD",
"j+	c #AAA49D",
"k+	c #717E8B",
"l+	c #BEC0C3",
"m+	c #8B8B8A",
"n+	c #996E3B",
"o+	c #F69F3B",
"p+	c #944709",
"q+	c #A5652F",
"r+	c #FECE94",
"s+	c #FFB258",
"t+	c #C69459",
"u+	c #CAC8C4",
"v+	c #979493",
"w+	c #ABB6C4",
"x+	c #D1CCC7",
"y+	c #E0CEBA",
"z+	c #E4C39C",
"A+	c #E0B787",
"B+	c #E0BD94",
"C+	c #CCAB86",
"D+	c #708A9E",
"E+	c #6A7A8C",
"F+	c #C5C4C4",
"G+	c #827A71",
"H+	c #E18F35",
"I+	c #934808",
"J+	c #A15C24",
"K+	c #FECC92",
"L+	c #FFB053",
"M+	c #978D81",
"N+	c #D7D7D7",
"O+	c #9EAAB8",
"P+	c #D9D7D5",
"Q+	c #EDE1D3",
"R+	c #F2E0CA",
"S+	c #EFDAC0",
"T+	c #E4BE92",
"U+	c #E1BB8D",
"V+	c #D2B088",
"W+	c #7F969D",
"X+	c #506883",
"Y+	c #6A6F76",
"Z+	c #C9C4BF",
"`+	c #9F7345",
" @	c #9B551C",
".@	c #FDCB90",
"+@	c #FEAC4E",
"@@	c #FEAC4D",
"#@	c #FEAA4A",
"$@	c #FEA947",
"%@	c #E99E49",
"&@	c #BAB5B0",
"*@	c #93918F",
"=@	c #C4CDD9",
"-@	c #E8E1D9",
";@	c #F2DFC9",
">@	c #F1DFC9",
",@	c #E8C7A0",
"'@	c #E0B683",
")@	c #D5B48C",
"!@	c #7F8182",
"~@	c #4A5562",
"{@	c #777572",
"]@	c #CEC9C4",
"^@	c #817163",
"/@	c #964A0C",
"(@	c #F9C991",
"_@	c #F8A446",
":@	c #F8A445",
"<@	c #F8A240",
"[@	c #F89F3C",
"}@	c #F89F3B",
"|@	c #C98941",
"1@	c #CFCCCA",
"2@	c #8B9097",
"3@	c #D5D6D8",
"4@	c #EADED1",
"5@	c #F0DCC7",
"6@	c #F0DCC6",
"7@	c #E4BF98",
"8@	c #DDAF7B",
"9@	c #D6B28C",
"0@	c #8D7A66",
"a@	c #3D4550",
"b@	c #B19573",
"c@	c #A7A096",
"d@	c #897E75",
"e@	c #914608",
"f@	c #F1C08A",
"g@	c #F29B3C",
"h@	c #F29B3B",
"i@	c #F29937",
"j@	c #F29936",
"k@	c #BD813E",
"l@	c #D4D2D1",
"m@	c #8D949D",
"n@	c #D3D3D3",
"o@	c #EADCCC",
"p@	c #EED9C2",
"q@	c #EEDAC4",
"r@	c #ECD5BB",
"s@	c #DBAC7B",
"t@	c #D8A873",
"u@	c #D5B189",
"v@	c #A38B71",
"w@	c #95826D",
"x@	c #BC9B74",
"y@	c #9E968B",
"z@	c #888078",
"A@	c #E5B37E",
"B@	c #EB9032",
"C@	c #ED9232",
"D@	c #C98339",
"E@	c #C7C3C0",
"F@	c #888D91",
"G@	c #C4C5C8",
"H@	c #E4D5C6",
"I@	c #EDD7C1",
"J@	c #EAD1B7",
"K@	c #DDB488",
"L@	c #D5A16D",
"M@	c #D6A16D",
"N@	c #E3C8AC",
"O@	c #C6AE94",
"P@	c #D3BDA3",
"Q@	c #B29472",
"R@	c #B2AAA1",
"S@	c #80766F",
"T@	c #CC9965",
"U@	c #E59037",
"V@	c #E78C2E",
"W@	c #E28A2F",
"X@	c #ABA49D",
"Y@	c #A8A4A0",
"Z@	c #A7B1C0",
"`@	c #C8B6A4",
" #	c #DAB087",
".#	c #D3A374",
"+#	c #D09E6B",
"@#	c #D09E6A",
"##	c #E4CAB0",
"$#	c #CEB396",
"%#	c #D4B99B",
"&#	c #908578",
"*#	c #D5CDC6",
"=#	c #736153",
"-#	c #AD7441",
";#	c #DE9446",
">#	c #E18529",
",#	c #90775D",
"'#	c #DFDFDD",
")#	c #878F9A",
"!#	c #B4AEAC",
"~#	c #C3A181",
"{#	c #CC9867",
"]#	c #CB9867",
"^#	c #CC9967",
"/#	c #D5AF8A",
"(#	c #C5A583",
"_#	c #AB8C69",
":#	c #8A837C",
"<#	c #A8A39D",
"[#	c #754B29",
"}#	c #945017",
"|#	c #DA9E60",
"1#	c #DB7E24",
"2#	c #DB7F25",
"3#	c #CA792A",
"4#	c #A09992",
"5#	c #CCC9C5",
"6#	c #8E96A1",
"7#	c #B3A8A2",
"8#	c #C09E80",
"9#	c #C79666",
"0#	c #C79464",
"a#	c #C99A6F",
"b#	c #A88B6D",
"c#	c #7A7875",
"d#	c #CFCBC7",
"e#	c #6D6C6A",
"f#	c #645F58",
"g#	c #BA804A",
"h#	c #D8924E",
"i#	c #DA8A40",
"j#	c #DA8333",
"k#	c #D77C28",
"l#	c #D67821",
"m#	c #AF6F35",
"n#	c #A8A29C",
"o#	c #D3CECA",
"p#	c #838489",
"q#	c #9B9A9E",
"r#	c #A89D97",
"s#	c #AF9989",
"t#	c #A69386",
"u#	c #8E8885",
"v#	c #8B8580",
"w#	c #CECAC6",
"x#	c #767675",
"y#	c #C0C0C0",
"z#	c #949494",
"A#	c #645C4F",
"B#	c #8A3E04",
"C#	c #9B5418",
"D#	c #AC6726",
"E#	c #BA7631",
"F#	c #C37F39",
"G#	c #C6833E",
"H#	c #CA843E",
"I#	c #CE843C",
"J#	c #D08034",
"K#	c #D27D2F",
"L#	c #D27928",
"M#	c #B16D2F",
"N#	c #8F857C",
"O#	c #CFCAC5",
"P#	c #D0CBC7",
"Q#	c #A79E97",
"R#	c #9C948D",
"S#	c #B2A9A1",
"T#	c #D5CEC7",
"U#	c #A8A29E",
"V#	c #6F6E6D",
"W#	c #E1E1E1",
"X#	c #EDEDED",
"Y#	c #726D60",
"Z#	c #B19748",
"`#	c #8F610D",
" $	c #7F3B02",
".$	c #904403",
"+$	c #9A4D07",
"@$	c #A85B0F",
"#$	c #B16616",
"$$	c #B86B1D",
"%$	c #BD7325",
"&$	c #BF772E",
"*$	c #966E46",
"=$	c #86776A",
"-$	c #958B82",
";$	c #928880",
">$	c #8A7E74",
",$	c #846B56",
"'$	c #A7703F",
")$	c #6B5E50",
"!$	c #B4B3B2",
"~$	c #787065",
"{$	c #CC8E0D",
"]$	c #DEAC15",
"^$	c #C1A146",
"/$	c #743302",
"($	c #8B4203",
"_$	c #954902",
":$	c #A25306",
"<$	c #AD5F0E",
"[$	c #B46716",
"}$	c #BA6F1E",
"|$	c #BE7529",
"1$	c #C67A31",
"2$	c #B76E24",
"3$	c #6D5C47",
"4$	c #B58447",
"5$	c #ED9616",
"6$	c #E39900",
"7$	c #DEAD15",
"8$	c #B99741",
"9$	c #7C3802",
"0$	c #8E4204",
"a$	c #954802",
"b$	c #9F4F03",
"c$	c #994A03",
"d$	c #92560C",
"e$	c #C99046",
"f$	c #EC9716",
"g$	c #E39C06",
"h$	c #C59F45",
"i$	c #93590C",
"j$	c #BE863F",
"k$	c #C99343",
"l$	c #97661A",
"                                                                ",
"                                        . + @ # $               ",
"                                  % & * = - ; > , ' @           ",
"                        ) ! ~ { ] ^ / ( _ : < [ } | 1 2 #       ",
"                  3 4 5 6 7 8 9 0 a b c d e f g h i j k l       ",
"                  m n o p q r s t u v w x y z A B C D E         ",
"                  F G H I J K L M N O P x Q R S T U V           ",
"                  F W X     Y Z `  ...+.x @.#.$.%.&.*.          ",
"                  F W X     =.-.-.-.;.+.x >.,.'.).!.~.{.].      ",
"            ^./.(._.W X :.<.` -.-.-.;.P x [.}.|.1.2.3.-.4.      ",
"            5.6.-.7.W 8.9.-.-.-.-.0.a.b.c.d.e.f.g.h.i.-.=.      ",
"    ^.j.k.l.m.n.o.p.q.r.s.t.u.v.w.x.y.z.A.B.C.D.E.F.G.-.H.      ",
"    I.J.K.L.M.N.O.P.Q.R.S.T.U.V.W.X.Y.Z.`. +.+++@+#+$+-.%+      ",
"    &+*+=+=+=+=+=+=+=+=+=+=+=+=+-+;+>+,+'+)+!+~+{+]+^+-./+      ",
"    (+*+_+_+_+_+_+_+_+_+_+_+:+<+[+}+|+1+2+3+4+5+6+7+8+-.Y       ",
"    9+0+a+a+a+a+a+a+a+a+a+a+b+c+d+e+f+g+h+i+j+k+l+m+n+o+p+      ",
"    q+r+s+s+s+s+s+s+s+s+s+t+u+v+w+x+y+z+A+B+C+D+E+F+G+H+I+      ",
"    J+K+L+L+L+L+L+L+L+L+L+M+N+O+P+Q+R+S+T+U+V+W+X+Y+Z+`+        ",
"     @.@+@+@+@+@@@#@$@$@%@&@*@=@-@;@>@;@,@'@)@!@~@{@]@^@        ",
"    /@(@_@_@:@<@[@}@}@}@|@1@2@3@4@5@5@6@7@8@9@0@a@b@c@d@        ",
"    e@f@g@h@i@j@j@j@j@j@k@l@m@n@o@p@q@r@s@t@u@v@w@x@y@z@        ",
"      A@B@C@C@C@C@C@C@C@D@E@F@G@H@I@J@K@L@M@N@O@P@Q@R@S@        ",
"      T@U@V@V@V@V@V@V@V@W@X@Y@Z@`@ #.#+#@#@###$#%#&#*#=#        ",
"      -#;#>#>#>#>#>#>#>#>#,#'#)#!#~#{#]#^#^#/#(#_#:#<#[#        ",
"      }#|#1#2#2#2#2#2#2#2#3#4#5#6#7#8#9#0#0#a#b#c#d#e#f#        ",
"        g#h#i#j#k#l#l#l#l#l#m#n#o#p#q#r#s#t#u#v#w#x#y#z#A#      ",
"        B#C#D#E#F#G#H#I#J#K#L#M#N#O#P#Q#R#S#T#U#V#W#X#Y#Z#`#    ",
"                   $.$+$@$#$$$%$&$*$=$-$;$>$,$'$)$!$~${$]$^$`#  ",
"                              /$($_$:$<$[$}$|$1$2$3$4$5$6$7$8$  ",
"                                          9$0$a$b$c$d$e$f$g$h$  ",
"                                                      i$j$k$l$  ",
"                                                                "};
